<svg width="24" height="24" viewBox="0 0 24 24" fill="none" xmlns="http://www.w3.org/2000/svg">
<path d="M24 12.0004C24 18.0612 19.5074 23.0717 13.6712 23.8848C13.1255 23.9605 12.5671 24 12.0004 24C11.3463 24 10.7039 23.9479 10.0783 23.847C4.36394 22.9271 0 17.9729 0 12.0004C0 5.37295 5.37295 0 11.9996 0C18.6262 0 24 5.37295 24 12.0004Z" fill="#1877F2"/>
<path d="M13.6713 9.63515V12.2493H16.9051L16.3931 15.7707H13.6713V23.884C13.1256 23.9596 12.5673 23.9992 12.0005 23.9992C11.3464 23.9992 10.704 23.947 10.0784 23.8461V15.7707H7.09595V12.2493H10.0784V9.05077C10.0784 7.06639 11.6869 5.45703 13.6721 5.45703V5.45871C13.678 5.45871 13.6831 5.45703 13.6889 5.45703H16.906V8.50254H14.8039C14.1792 8.50254 13.6721 9.00957 13.6721 9.63431L13.6713 9.63515Z" fill="white"/>
</svg>
