<svg width="1096" height="83" viewBox="0 0 1096 83" fill="none" xmlns="http://www.w3.org/2000/svg">
<line x1="82" y1="19.5" x2="533" y2="19.5" stroke="#ACACAC"/>
<line x1="562.115" y1="19.5" x2="1029.58" y2="19.5" stroke="#ACACAC"/>
<g clip-path="url(#clip0_249_3456)">
<path d="M63 0C51.9717 0 43 8.97167 43 20C43 31.0283 51.9717 40 63 40C74.0283 40 83 31.0283 83 20C83 8.97167 74.0283 0 63 0ZM62.8483 25.6983C62.2033 26.3433 61.355 26.665 60.5033 26.665C59.6517 26.665 58.795 26.34 58.1433 25.69L53.5067 21.1967L55.8283 18.8017L60.4833 23.3133L70.165 13.8117L72.505 16.1867L62.8483 25.6983Z" fill="#D9176C"/>
</g>
<path d="M14.6699 69.8418C14.6699 70.9421 14.5299 71.9447 14.25 72.8496C13.9766 73.748 13.5632 74.5228 13.0098 75.1738C12.4564 75.8184 11.763 76.3164 10.9297 76.668C10.0964 77.0195 9.11979 77.1953 8 77.1953C6.86068 77.1953 5.87109 77.0195 5.03125 76.668C4.19792 76.3164 3.50456 75.8151 2.95117 75.1641C2.4043 74.513 1.99414 73.735 1.7207 72.8301C1.44727 71.9251 1.31055 70.9225 1.31055 69.8223C1.31055 68.3509 1.55143 67.0684 2.0332 65.9746C2.52148 64.8743 3.26042 64.0215 4.25 63.416C5.24609 62.804 6.5026 62.498 8.01953 62.498C9.50391 62.498 10.7376 62.8008 11.7207 63.4062C12.7038 64.0117 13.4395 64.8646 13.9277 65.9648C14.4225 67.0586 14.6699 68.3509 14.6699 69.8418ZM3.77148 69.8418C3.77148 70.9421 3.92122 71.8958 4.2207 72.7031C4.52018 73.5039 4.97917 74.1224 5.59766 74.5586C6.22266 74.9883 7.02344 75.2031 8 75.2031C8.98307 75.2031 9.78385 74.9883 10.4023 74.5586C11.0208 74.1224 11.4766 73.5039 11.7695 72.7031C12.0625 71.8958 12.209 70.9421 12.209 69.8418C12.209 68.1686 11.8737 66.86 11.2031 65.916C10.5391 64.9655 9.47786 64.4902 8.01953 64.4902C7.04297 64.4902 6.23893 64.7051 5.60742 65.1348C4.98242 65.5645 4.52018 66.1797 4.2207 66.9805C3.92122 67.7747 3.77148 68.7285 3.77148 69.8418ZM22.9805 65.9844C23.1628 65.9844 23.3613 65.9941 23.5762 66.0137C23.791 66.0332 23.9766 66.0592 24.1328 66.0918L23.918 68.2402C23.7812 68.2012 23.612 68.1719 23.4102 68.1523C23.2148 68.1328 23.0391 68.123 22.8828 68.123C22.4727 68.123 22.082 68.1914 21.7109 68.3281C21.3398 68.4583 21.0111 68.6602 20.7246 68.9336C20.4382 69.2005 20.2135 69.5358 20.0508 69.9395C19.888 70.3431 19.8066 70.8118 19.8066 71.3457V77H17.502V66.1895H19.2988L19.6113 68.0938H19.7188C19.9336 67.7096 20.2005 67.3581 20.5195 67.0391C20.8385 66.7201 21.2031 66.4661 21.6133 66.2773C22.0299 66.082 22.4857 65.9844 22.9805 65.9844ZM29.7676 77.1953C28.4785 77.1953 27.4434 76.7266 26.6621 75.7891C25.8874 74.8451 25.5 73.4551 25.5 71.6191C25.5 69.7637 25.8939 68.3607 26.6816 67.4102C27.4759 66.4596 28.5208 65.9844 29.8164 65.9844C30.3633 65.9844 30.8418 66.0592 31.252 66.209C31.6621 66.3522 32.0137 66.5475 32.3066 66.7949C32.6061 67.0423 32.86 67.319 33.0684 67.625H33.1758C33.1432 67.4232 33.1042 67.1335 33.0586 66.7559C33.0195 66.3717 33 66.0169 33 65.6914V61.8047H35.3047V77H33.5078L33.0977 75.5254H33C32.8047 75.8379 32.5573 76.1211 32.2578 76.375C31.9648 76.6224 31.6133 76.821 31.2031 76.9707C30.7995 77.1204 30.321 77.1953 29.7676 77.1953ZM30.4121 75.3301C31.3952 75.3301 32.0885 75.0469 32.4922 74.4805C32.8958 73.9141 33.1042 73.0645 33.1172 71.9316V71.6289C33.1172 70.418 32.9219 69.4902 32.5312 68.8457C32.1406 68.1947 31.4277 67.8691 30.3926 67.8691C29.5658 67.8691 28.9342 68.2044 28.498 68.875C28.0684 69.5391 27.8535 70.4668 27.8535 71.6582C27.8535 72.8496 28.0684 73.7611 28.498 74.3926C28.9342 75.0176 29.5723 75.3301 30.4121 75.3301ZM42.9023 65.9844C43.8659 65.9844 44.6927 66.1829 45.3828 66.5801C46.0729 66.9772 46.6035 67.5404 46.9746 68.2695C47.3457 68.9987 47.5312 69.8711 47.5312 70.8867V72.1172H40.3145C40.3405 73.1654 40.6204 73.9727 41.1543 74.5391C41.6947 75.1055 42.4499 75.3887 43.4199 75.3887C44.11 75.3887 44.7285 75.3236 45.2754 75.1934C45.8288 75.0566 46.3984 74.8581 46.9844 74.5977V76.4629C46.444 76.7168 45.8939 76.9023 45.334 77.0195C44.7741 77.1367 44.1035 77.1953 43.3223 77.1953C42.2611 77.1953 41.3268 76.9902 40.5195 76.5801C39.7188 76.1634 39.0905 75.5449 38.6348 74.7246C38.1855 73.9043 37.9609 72.8854 37.9609 71.668C37.9609 70.457 38.166 69.4284 38.5762 68.582C38.9863 67.7357 39.5625 67.0911 40.3047 66.6484C41.0469 66.2057 41.9128 65.9844 42.9023 65.9844ZM42.9023 67.7129C42.1797 67.7129 41.5938 67.9473 41.1445 68.416C40.7018 68.8848 40.4414 69.5716 40.3633 70.4766H45.2852C45.2786 69.9362 45.1875 69.4577 45.0117 69.041C44.8424 68.6243 44.582 68.2988 44.2305 68.0645C43.8854 67.8301 43.4427 67.7129 42.9023 67.7129ZM55.5977 65.9844C55.7799 65.9844 55.9785 65.9941 56.1934 66.0137C56.4082 66.0332 56.5938 66.0592 56.75 66.0918L56.5352 68.2402C56.3984 68.2012 56.2292 68.1719 56.0273 68.1523C55.832 68.1328 55.6562 68.123 55.5 68.123C55.0898 68.123 54.6992 68.1914 54.3281 68.3281C53.957 68.4583 53.6283 68.6602 53.3418 68.9336C53.0553 69.2005 52.8307 69.5358 52.668 69.9395C52.5052 70.3431 52.4238 70.8118 52.4238 71.3457V77H50.1191V66.1895H51.916L52.2285 68.0938H52.3359C52.5508 67.7096 52.8177 67.3581 53.1367 67.0391C53.4557 66.7201 53.8203 66.4661 54.2305 66.2773C54.6471 66.082 55.1029 65.9844 55.5977 65.9844ZM69.4941 65.9844C70.7767 65.9844 71.8053 66.4531 72.5801 67.3906C73.3613 68.3281 73.752 69.7214 73.752 71.5703C73.752 72.7943 73.5697 73.8262 73.2051 74.666C72.847 75.4993 72.3424 76.1309 71.6914 76.5605C71.0469 76.9837 70.2949 77.1953 69.4355 77.1953C68.8887 77.1953 68.4134 77.1237 68.0098 76.9805C67.6061 76.8372 67.2611 76.6517 66.9746 76.4238C66.6882 76.1895 66.4473 75.9355 66.252 75.6621H66.1152C66.1478 75.9225 66.1771 76.2122 66.2031 76.5312C66.2357 76.8438 66.252 77.1302 66.252 77.3906V81.7949H63.9473V66.1895H65.8223L66.1445 67.6836H66.252C66.4538 67.3776 66.6979 67.0944 66.9844 66.834C67.2773 66.5736 67.6289 66.3685 68.0391 66.2188C68.4557 66.0625 68.9408 65.9844 69.4941 65.9844ZM68.8789 67.8594C68.2474 67.8594 67.7396 67.9863 67.3555 68.2402C66.9779 68.4876 66.7012 68.862 66.5254 69.3633C66.3561 69.8646 66.265 70.4928 66.252 71.248V71.5703C66.252 72.3711 66.3333 73.0514 66.4961 73.6113C66.6654 74.1647 66.9421 74.5879 67.3262 74.8809C67.7168 75.1673 68.2441 75.3105 68.9082 75.3105C69.4681 75.3105 69.9303 75.1576 70.2949 74.8516C70.666 74.5456 70.9427 74.1094 71.125 73.543C71.3073 72.9766 71.3984 72.3092 71.3984 71.541C71.3984 70.3757 71.1901 69.4707 70.7734 68.8262C70.3633 68.1816 69.7318 67.8594 68.8789 67.8594ZM78.7129 77H76.4082V61.8047H78.7129V77ZM86.2324 65.9844C87.5996 65.9844 88.6315 66.2871 89.3281 66.8926C90.0312 67.498 90.3828 68.4421 90.3828 69.7246V77H88.752L88.3125 75.4668H88.2344C87.9284 75.8574 87.6126 76.1797 87.2871 76.4336C86.9616 76.6875 86.584 76.8763 86.1543 77C85.7311 77.1302 85.2135 77.1953 84.6016 77.1953C83.957 77.1953 83.3809 77.0781 82.873 76.8438C82.3652 76.6029 81.9648 76.2383 81.6719 75.75C81.3789 75.2617 81.2324 74.6432 81.2324 73.8945C81.2324 72.7812 81.6458 71.9447 82.4727 71.3848C83.306 70.8249 84.5625 70.5156 86.2422 70.457L88.1172 70.3887V69.8223C88.1172 69.0736 87.9414 68.5397 87.5898 68.2207C87.2448 67.9017 86.7565 67.7422 86.125 67.7422C85.5846 67.7422 85.0605 67.8203 84.5527 67.9766C84.0449 68.1328 83.5501 68.3249 83.0684 68.5527L82.3262 66.9316C82.8535 66.6517 83.4525 66.4238 84.123 66.248C84.8001 66.0723 85.5033 65.9844 86.2324 65.9844ZM88.1074 71.834L86.7109 71.8828C85.5651 71.9219 84.7611 72.1172 84.2988 72.4688C83.8366 72.8203 83.6055 73.3021 83.6055 73.9141C83.6055 74.4479 83.765 74.8385 84.084 75.0859C84.403 75.3268 84.8229 75.4473 85.3438 75.4473C86.138 75.4473 86.7956 75.2227 87.3164 74.7734C87.8438 74.3177 88.1074 73.6504 88.1074 72.7715V71.834ZM97.9512 77.1953C96.929 77.1953 96.0436 76.9967 95.2949 76.5996C94.5462 76.2025 93.9701 75.5938 93.5664 74.7734C93.1628 73.9531 92.9609 72.9115 92.9609 71.6484C92.9609 70.3333 93.1823 69.2591 93.625 68.4258C94.0677 67.5924 94.6797 66.9772 95.4609 66.5801C96.2487 66.1829 97.1504 65.9844 98.166 65.9844C98.8105 65.9844 99.3932 66.0495 99.9141 66.1797C100.441 66.3034 100.887 66.4564 101.252 66.6387L100.568 68.4746C100.171 68.3118 99.7643 68.1751 99.3477 68.0645C98.931 67.9538 98.5306 67.8984 98.1465 67.8984C97.515 67.8984 96.9876 68.0384 96.5645 68.3184C96.1478 68.5983 95.8353 69.015 95.627 69.5684C95.4251 70.1217 95.3242 70.8086 95.3242 71.6289C95.3242 72.4232 95.4284 73.0938 95.6367 73.6406C95.8451 74.181 96.1543 74.5911 96.5645 74.8711C96.9746 75.1445 97.4792 75.2812 98.0781 75.2812C98.6706 75.2812 99.2012 75.2096 99.6699 75.0664C100.139 74.9232 100.581 74.7376 100.998 74.5098V76.502C100.588 76.7363 100.148 76.9089 99.6797 77.0195C99.2109 77.1367 98.6348 77.1953 97.9512 77.1953ZM107.844 65.9844C108.807 65.9844 109.634 66.1829 110.324 66.5801C111.014 66.9772 111.545 67.5404 111.916 68.2695C112.287 68.9987 112.473 69.8711 112.473 70.8867V72.1172H105.256C105.282 73.1654 105.562 73.9727 106.096 74.5391C106.636 75.1055 107.391 75.3887 108.361 75.3887C109.051 75.3887 109.67 75.3236 110.217 75.1934C110.77 75.0566 111.34 74.8581 111.926 74.5977V76.4629C111.385 76.7168 110.835 76.9023 110.275 77.0195C109.715 77.1367 109.045 77.1953 108.264 77.1953C107.202 77.1953 106.268 76.9902 105.461 76.5801C104.66 76.1634 104.032 75.5449 103.576 74.7246C103.127 73.9043 102.902 72.8854 102.902 71.668C102.902 70.457 103.107 69.4284 103.518 68.582C103.928 67.7357 104.504 67.0911 105.246 66.6484C105.988 66.2057 106.854 65.9844 107.844 65.9844ZM107.844 67.7129C107.121 67.7129 106.535 67.9473 106.086 68.416C105.643 68.8848 105.383 69.5716 105.305 70.4766H110.227C110.22 69.9362 110.129 69.4577 109.953 69.041C109.784 68.6243 109.523 68.2988 109.172 68.0645C108.827 67.8301 108.384 67.7129 107.844 67.7129ZM118.693 77.1953C117.404 77.1953 116.369 76.7266 115.588 75.7891C114.813 74.8451 114.426 73.4551 114.426 71.6191C114.426 69.7637 114.82 68.3607 115.607 67.4102C116.402 66.4596 117.447 65.9844 118.742 65.9844C119.289 65.9844 119.768 66.0592 120.178 66.209C120.588 66.3522 120.939 66.5475 121.232 66.7949C121.532 67.0423 121.786 67.319 121.994 67.625H122.102C122.069 67.4232 122.03 67.1335 121.984 66.7559C121.945 66.3717 121.926 66.0169 121.926 65.6914V61.8047H124.23V77H122.434L122.023 75.5254H121.926C121.73 75.8379 121.483 76.1211 121.184 76.375C120.891 76.6224 120.539 76.821 120.129 76.9707C119.725 77.1204 119.247 77.1953 118.693 77.1953ZM119.338 75.3301C120.321 75.3301 121.014 75.0469 121.418 74.4805C121.822 73.9141 122.03 73.0645 122.043 71.9316V71.6289C122.043 70.418 121.848 69.4902 121.457 68.8457C121.066 68.1947 120.354 67.8691 119.318 67.8691C118.492 67.8691 117.86 68.2044 117.424 68.875C116.994 69.5391 116.779 70.4668 116.779 71.6582C116.779 72.8496 116.994 73.7611 117.424 74.3926C117.86 75.0176 118.498 75.3301 119.338 75.3301Z" fill="#D9176C"/>
<g clip-path="url(#clip1_249_3456)">
<path d="M548 0C536.972 0 528 8.97167 528 20C528 31.0283 536.972 40 548 40C559.028 40 568 31.0283 568 20C568 8.97167 559.028 0 548 0ZM547.848 25.6983C547.203 26.3433 546.355 26.665 545.503 26.665C544.652 26.665 543.795 26.34 543.143 25.69L538.507 21.1967L540.828 18.8017L545.483 23.3133L555.165 13.8117L557.505 16.1867L547.848 25.6983Z" fill="#ACACAC"/>
</g>
<path d="M516.311 73.1133C516.311 73.9596 516.102 74.6888 515.686 75.3008C515.275 75.9128 514.683 76.3815 513.908 76.707C513.14 77.0326 512.222 77.1953 511.154 77.1953C510.633 77.1953 510.135 77.166 509.66 77.1074C509.185 77.0488 508.736 76.9642 508.312 76.8535C507.896 76.7363 507.515 76.5964 507.17 76.4336V74.2266C507.749 74.4805 508.397 74.7116 509.113 74.9199C509.829 75.1217 510.559 75.2227 511.301 75.2227C511.906 75.2227 512.408 75.1445 512.805 74.9883C513.208 74.8255 513.508 74.5977 513.703 74.3047C513.898 74.0052 513.996 73.6569 513.996 73.2598C513.996 72.8366 513.882 72.4785 513.654 72.1855C513.426 71.8926 513.081 71.6257 512.619 71.3848C512.163 71.1374 511.59 70.8737 510.9 70.5938C510.432 70.4049 509.982 70.1901 509.553 69.9492C509.13 69.7083 508.752 69.4251 508.42 69.0996C508.088 68.7741 507.824 68.39 507.629 67.9473C507.44 67.498 507.346 66.9707 507.346 66.3652C507.346 65.5579 507.538 64.8678 507.922 64.2949C508.312 63.722 508.859 63.2826 509.562 62.9766C510.272 62.6706 511.099 62.5176 512.043 62.5176C512.792 62.5176 513.495 62.5957 514.152 62.752C514.816 62.9082 515.467 63.1296 516.105 63.416L515.363 65.3008C514.777 65.0599 514.208 64.8678 513.654 64.7246C513.107 64.5814 512.548 64.5098 511.975 64.5098C511.48 64.5098 511.06 64.5846 510.715 64.7344C510.37 64.8841 510.106 65.0957 509.924 65.3691C509.748 65.6361 509.66 65.9551 509.66 66.3262C509.66 66.7428 509.761 67.0944 509.963 67.3809C510.171 67.6608 510.49 67.918 510.92 68.1523C511.356 68.3867 511.916 68.6471 512.6 68.9336C513.387 69.2591 514.055 69.6009 514.602 69.959C515.155 70.3171 515.578 70.7467 515.871 71.248C516.164 71.7428 516.311 72.3646 516.311 73.1133ZM521.125 61.8047V65.623C521.125 66.0202 521.112 66.4076 521.086 66.7852C521.066 67.1628 521.044 67.4557 521.018 67.6641H521.145C521.372 67.2865 521.652 66.9772 521.984 66.7363C522.316 66.4889 522.688 66.3034 523.098 66.1797C523.514 66.056 523.957 65.9941 524.426 65.9941C525.253 65.9941 525.956 66.1341 526.535 66.4141C527.115 66.6875 527.557 67.1139 527.863 67.6934C528.176 68.2728 528.332 69.0247 528.332 69.9492V77H526.037V70.3789C526.037 69.5391 525.865 68.9108 525.52 68.4941C525.174 68.071 524.641 67.8594 523.918 67.8594C523.221 67.8594 522.668 68.0059 522.258 68.2988C521.854 68.5853 521.564 69.0117 521.389 69.5781C521.213 70.138 521.125 70.8216 521.125 71.6289V77H518.83V61.8047H521.125ZM533.84 66.1895V77H531.545V66.1895H533.84ZM532.707 62.0488C533.059 62.0488 533.361 62.1432 533.615 62.332C533.876 62.5208 534.006 62.8464 534.006 63.3086C534.006 63.7643 533.876 64.0898 533.615 64.2852C533.361 64.474 533.059 64.5684 532.707 64.5684C532.342 64.5684 532.033 64.474 531.779 64.2852C531.532 64.0898 531.408 63.7643 531.408 63.3086C531.408 62.8464 531.532 62.5208 531.779 62.332C532.033 62.1432 532.342 62.0488 532.707 62.0488ZM542.678 65.9844C543.96 65.9844 544.989 66.4531 545.764 67.3906C546.545 68.3281 546.936 69.7214 546.936 71.5703C546.936 72.7943 546.753 73.8262 546.389 74.666C546.031 75.4993 545.526 76.1309 544.875 76.5605C544.23 76.9837 543.479 77.1953 542.619 77.1953C542.072 77.1953 541.597 77.1237 541.193 76.9805C540.79 76.8372 540.445 76.6517 540.158 76.4238C539.872 76.1895 539.631 75.9355 539.436 75.6621H539.299C539.331 75.9225 539.361 76.2122 539.387 76.5312C539.419 76.8438 539.436 77.1302 539.436 77.3906V81.7949H537.131V66.1895H539.006L539.328 67.6836H539.436C539.637 67.3776 539.882 67.0944 540.168 66.834C540.461 66.5736 540.812 66.3685 541.223 66.2188C541.639 66.0625 542.124 65.9844 542.678 65.9844ZM542.062 67.8594C541.431 67.8594 540.923 67.9863 540.539 68.2402C540.161 68.4876 539.885 68.862 539.709 69.3633C539.54 69.8646 539.449 70.4928 539.436 71.248V71.5703C539.436 72.3711 539.517 73.0514 539.68 73.6113C539.849 74.1647 540.126 74.5879 540.51 74.8809C540.9 75.1673 541.428 75.3105 542.092 75.3105C542.652 75.3105 543.114 75.1576 543.479 74.8516C543.85 74.5456 544.126 74.1094 544.309 73.543C544.491 72.9766 544.582 72.3092 544.582 71.541C544.582 70.3757 544.374 69.4707 543.957 68.8262C543.547 68.1816 542.915 67.8594 542.062 67.8594ZM555.139 65.9844C556.421 65.9844 557.45 66.4531 558.225 67.3906C559.006 68.3281 559.396 69.7214 559.396 71.5703C559.396 72.7943 559.214 73.8262 558.85 74.666C558.492 75.4993 557.987 76.1309 557.336 76.5605C556.691 76.9837 555.939 77.1953 555.08 77.1953C554.533 77.1953 554.058 77.1237 553.654 76.9805C553.251 76.8372 552.906 76.6517 552.619 76.4238C552.333 76.1895 552.092 75.9355 551.896 75.6621H551.76C551.792 75.9225 551.822 76.2122 551.848 76.5312C551.88 76.8438 551.896 77.1302 551.896 77.3906V81.7949H549.592V66.1895H551.467L551.789 67.6836H551.896C552.098 67.3776 552.342 67.0944 552.629 66.834C552.922 66.5736 553.273 66.3685 553.684 66.2188C554.1 66.0625 554.585 65.9844 555.139 65.9844ZM554.523 67.8594C553.892 67.8594 553.384 67.9863 553 68.2402C552.622 68.4876 552.346 68.862 552.17 69.3633C552.001 69.8646 551.91 70.4928 551.896 71.248V71.5703C551.896 72.3711 551.978 73.0514 552.141 73.6113C552.31 74.1647 552.587 74.5879 552.971 74.8809C553.361 75.1673 553.889 75.3105 554.553 75.3105C555.113 75.3105 555.575 75.1576 555.939 74.8516C556.311 74.5456 556.587 74.1094 556.77 73.543C556.952 72.9766 557.043 72.3092 557.043 71.541C557.043 70.3757 556.835 69.4707 556.418 68.8262C556.008 68.1816 555.376 67.8594 554.523 67.8594ZM564.348 66.1895V77H562.053V66.1895H564.348ZM563.215 62.0488C563.566 62.0488 563.869 62.1432 564.123 62.332C564.383 62.5208 564.514 62.8464 564.514 63.3086C564.514 63.7643 564.383 64.0898 564.123 64.2852C563.869 64.474 563.566 64.5684 563.215 64.5684C562.85 64.5684 562.541 64.474 562.287 64.2852C562.04 64.0898 561.916 63.7643 561.916 63.3086C561.916 62.8464 562.04 62.5208 562.287 62.332C562.541 62.1432 562.85 62.0488 563.215 62.0488ZM573.273 65.9844C574.491 65.9844 575.438 66.3001 576.115 66.9316C576.799 67.5566 577.141 68.5625 577.141 69.9492V77H574.846V70.3789C574.846 69.5391 574.673 68.9108 574.328 68.4941C573.983 68.071 573.449 67.8594 572.727 67.8594C571.678 67.8594 570.949 68.1816 570.539 68.8262C570.135 69.4707 569.934 70.4049 569.934 71.6289V77H567.639V66.1895H569.426L569.748 67.6543H569.875C570.109 67.2767 570.399 66.9674 570.744 66.7266C571.096 66.4792 571.486 66.2936 571.916 66.1699C572.352 66.0462 572.805 65.9844 573.273 65.9844ZM583.439 81.8047C581.975 81.8047 580.852 81.541 580.07 81.0137C579.289 80.4863 578.898 79.7474 578.898 78.7969C578.898 78.1328 579.107 77.5697 579.523 77.1074C579.94 76.6517 580.536 76.3359 581.311 76.1602C581.018 76.0299 580.764 75.8281 580.549 75.5547C580.34 75.2747 580.236 74.9655 580.236 74.627C580.236 74.2233 580.35 73.8783 580.578 73.5918C580.806 73.3053 581.148 73.0286 581.604 72.7617C581.037 72.5208 580.581 72.1302 580.236 71.5898C579.898 71.043 579.729 70.4017 579.729 69.666C579.729 68.8848 579.895 68.2207 580.227 67.6738C580.559 67.1204 581.044 66.7005 581.682 66.4141C582.32 66.1211 583.091 65.9746 583.996 65.9746C584.191 65.9746 584.403 65.9876 584.631 66.0137C584.865 66.0332 585.08 66.0592 585.275 66.0918C585.477 66.1178 585.63 66.1471 585.734 66.1797H589.475V67.459L587.639 67.8008C587.814 68.0482 587.954 68.3314 588.059 68.6504C588.163 68.9629 588.215 69.3047 588.215 69.6758C588.215 70.7956 587.827 71.6777 587.053 72.3223C586.285 72.9603 585.223 73.2793 583.869 73.2793C583.544 73.2663 583.228 73.2402 582.922 73.2012C582.688 73.3444 582.508 73.5039 582.385 73.6797C582.261 73.849 582.199 74.041 582.199 74.2559C582.199 74.4316 582.261 74.5749 582.385 74.6855C582.508 74.7897 582.691 74.8678 582.932 74.9199C583.179 74.972 583.479 74.998 583.83 74.998H585.695C586.88 74.998 587.785 75.2487 588.41 75.75C589.035 76.2513 589.348 76.987 589.348 77.957C589.348 79.1875 588.84 80.1348 587.824 80.7988C586.809 81.4694 585.347 81.8047 583.439 81.8047ZM583.527 80.1934C584.328 80.1934 585.002 80.1152 585.549 79.959C586.096 79.8027 586.509 79.5781 586.789 79.2852C587.069 78.9987 587.209 78.6569 587.209 78.2598C587.209 77.9082 587.121 77.638 586.945 77.4492C586.77 77.2604 586.506 77.1302 586.154 77.0586C585.803 76.987 585.367 76.9512 584.846 76.9512H583.146C582.723 76.9512 582.349 77.0163 582.023 77.1465C581.698 77.2832 581.444 77.4785 581.262 77.7324C581.086 77.9863 580.998 78.2923 580.998 78.6504C580.998 79.1452 581.216 79.526 581.652 79.793C582.095 80.0599 582.72 80.1934 583.527 80.1934ZM583.977 71.7754C584.647 71.7754 585.145 71.5931 585.471 71.2285C585.796 70.8574 585.959 70.3366 585.959 69.666C585.959 68.9368 585.79 68.39 585.451 68.0254C585.119 67.6608 584.624 67.4785 583.967 67.4785C583.322 67.4785 582.831 67.6641 582.492 68.0352C582.16 68.4062 581.994 68.9564 581.994 69.6855C581.994 70.3431 582.16 70.8574 582.492 71.2285C582.831 71.5931 583.326 71.7754 583.977 71.7754Z" fill="#ACACAC"/>
<g clip-path="url(#clip2_249_3456)">
<path d="M1033 0C1021.97 0 1013 8.97167 1013 20C1013 31.0283 1021.97 40 1033 40C1044.03 40 1053 31.0283 1053 20C1053 8.97167 1044.03 0 1033 0ZM1032.85 25.6983C1032.2 26.3433 1031.35 26.665 1030.5 26.665C1029.65 26.665 1028.8 26.34 1028.14 25.69L1023.51 21.1967L1025.83 18.8017L1030.48 23.3133L1040.16 13.8117L1042.5 16.1867L1032.85 25.6983Z" fill="#ACACAC"/>
</g>
<path d="M988.244 64.5098C987.561 64.5098 986.949 64.6335 986.408 64.8809C985.874 65.1283 985.422 65.4863 985.051 65.9551C984.68 66.4173 984.396 66.9805 984.201 67.6445C984.006 68.3021 983.908 69.0443 983.908 69.8711C983.908 70.9779 984.064 71.9316 984.377 72.7324C984.689 73.5267 985.165 74.1387 985.803 74.5684C986.441 74.9915 987.248 75.2031 988.225 75.2031C988.83 75.2031 989.419 75.1445 989.992 75.0273C990.565 74.9102 991.158 74.7507 991.77 74.5488V76.541C991.19 76.7689 990.604 76.9349 990.012 77.0391C989.419 77.1432 988.736 77.1953 987.961 77.1953C986.503 77.1953 985.292 76.8926 984.328 76.2871C983.371 75.6816 982.655 74.8288 982.18 73.7285C981.711 72.6283 981.477 71.3392 981.477 69.8613C981.477 68.7806 981.626 67.791 981.926 66.8926C982.225 65.9941 982.661 65.2194 983.234 64.5684C983.807 63.9108 984.514 63.4062 985.354 63.0547C986.2 62.6966 987.167 62.5176 988.254 62.5176C988.97 62.5176 989.673 62.599 990.363 62.7617C991.06 62.918 991.704 63.1426 992.297 63.4355L991.477 65.3691C990.982 65.1348 990.464 64.9329 989.924 64.7637C989.383 64.5944 988.824 64.5098 988.244 64.5098ZM1004.17 71.5703C1004.17 72.4688 1004.05 73.2663 1003.82 73.9629C1003.59 74.6595 1003.24 75.2487 1002.79 75.7305C1002.35 76.2057 1001.81 76.5703 1001.17 76.8242C1000.54 77.0716 999.829 77.1953 999.035 77.1953C998.293 77.1953 997.613 77.0716 996.994 76.8242C996.376 76.5703 995.839 76.2057 995.383 75.7305C994.934 75.2487 994.585 74.6595 994.338 73.9629C994.09 73.2663 993.967 72.4688 993.967 71.5703C993.967 70.3789 994.172 69.3698 994.582 68.543C994.999 67.7096 995.591 67.0749 996.359 66.6387C997.128 66.2025 998.042 65.9844 999.104 65.9844C1000.1 65.9844 1000.98 66.2025 1001.74 66.6387C1002.5 67.0749 1003.1 67.7096 1003.53 68.543C1003.96 69.3763 1004.17 70.3854 1004.17 71.5703ZM996.33 71.5703C996.33 72.3581 996.424 73.0319 996.613 73.5918C996.809 74.1517 997.108 74.5814 997.512 74.8809C997.915 75.1738 998.436 75.3203 999.074 75.3203C999.712 75.3203 1000.23 75.1738 1000.64 74.8809C1001.04 74.5814 1001.34 74.1517 1001.53 73.5918C1001.71 73.0319 1001.81 72.3581 1001.81 71.5703C1001.81 70.7826 1001.71 70.1152 1001.53 69.5684C1001.34 69.015 1001.04 68.5951 1000.64 68.3086C1000.23 68.0156 999.709 67.8691 999.064 67.8691C998.114 67.8691 997.421 68.1882 996.984 68.8262C996.548 69.4642 996.33 70.3789 996.33 71.5703ZM1019.03 65.9844C1020.24 65.9844 1021.15 66.2969 1021.76 66.9219C1022.38 67.5469 1022.69 68.5495 1022.69 69.9297V77H1020.39V70.3398C1020.39 69.5195 1020.23 68.901 1019.91 68.4844C1019.6 68.0677 1019.11 67.8594 1018.46 67.8594C1017.55 67.8594 1016.89 68.1523 1016.49 68.7383C1016.09 69.3177 1015.89 70.1608 1015.89 71.2676V77H1013.6V70.3398C1013.6 69.793 1013.52 69.3372 1013.38 68.9727C1013.24 68.6016 1013.03 68.3249 1012.75 68.1426C1012.46 67.9538 1012.1 67.8594 1011.66 67.8594C1011.03 67.8594 1010.53 68.0026 1010.15 68.2891C1009.78 68.5755 1009.51 68.9987 1009.35 69.5586C1009.18 70.112 1009.1 70.7923 1009.1 71.5996V77H1006.81V66.1895H1008.6L1008.92 67.6445H1009.04C1009.27 67.2669 1009.54 66.9577 1009.87 66.7168C1010.2 66.4694 1010.57 66.2871 1010.97 66.1699C1011.37 66.0462 1011.79 65.9844 1012.23 65.9844C1013.04 65.9844 1013.72 66.1276 1014.27 66.4141C1014.82 66.694 1015.24 67.1237 1015.51 67.7031H1015.69C1016.02 67.1172 1016.5 66.6842 1017.1 66.4043C1017.71 66.1243 1018.35 65.9844 1019.03 65.9844ZM1031.44 65.9844C1032.72 65.9844 1033.75 66.4531 1034.52 67.3906C1035.3 68.3281 1035.7 69.7214 1035.7 71.5703C1035.7 72.7943 1035.51 73.8262 1035.15 74.666C1034.79 75.4993 1034.29 76.1309 1033.63 76.5605C1032.99 76.9837 1032.24 77.1953 1031.38 77.1953C1030.83 77.1953 1030.36 77.1237 1029.95 76.9805C1029.55 76.8372 1029.2 76.6517 1028.92 76.4238C1028.63 76.1895 1028.39 75.9355 1028.2 75.6621H1028.06C1028.09 75.9225 1028.12 76.2122 1028.15 76.5312C1028.18 76.8438 1028.2 77.1302 1028.2 77.3906V81.7949H1025.89V66.1895H1027.77L1028.09 67.6836H1028.2C1028.4 67.3776 1028.64 67.0944 1028.93 66.834C1029.22 66.5736 1029.57 66.3685 1029.98 66.2188C1030.4 66.0625 1030.88 65.9844 1031.44 65.9844ZM1030.82 67.8594C1030.19 67.8594 1029.68 67.9863 1029.3 68.2402C1028.92 68.4876 1028.64 68.862 1028.47 69.3633C1028.3 69.8646 1028.21 70.4928 1028.2 71.248V71.5703C1028.2 72.3711 1028.28 73.0514 1028.44 73.6113C1028.61 74.1647 1028.89 74.5879 1029.27 74.8809C1029.66 75.1673 1030.19 75.3105 1030.85 75.3105C1031.41 75.3105 1031.87 75.1576 1032.24 74.8516C1032.61 74.5456 1032.89 74.1094 1033.07 73.543C1033.25 72.9766 1033.34 72.3092 1033.34 71.541C1033.34 70.3757 1033.13 69.4707 1032.72 68.8262C1032.31 68.1816 1031.68 67.8594 1030.82 67.8594ZM1040.66 77H1038.35V61.8047H1040.66V77ZM1048.24 65.9844C1049.21 65.9844 1050.03 66.1829 1050.72 66.5801C1051.41 66.9772 1051.95 67.5404 1052.32 68.2695C1052.69 68.9987 1052.87 69.8711 1052.87 70.8867V72.1172H1045.66C1045.68 73.1654 1045.96 73.9727 1046.5 74.5391C1047.04 75.1055 1047.79 75.3887 1048.76 75.3887C1049.45 75.3887 1050.07 75.3236 1050.62 75.1934C1051.17 75.0566 1051.74 74.8581 1052.33 74.5977V76.4629C1051.79 76.7168 1051.24 76.9023 1050.68 77.0195C1050.12 77.1367 1049.45 77.1953 1048.66 77.1953C1047.6 77.1953 1046.67 76.9902 1045.86 76.5801C1045.06 76.1634 1044.43 75.5449 1043.98 74.7246C1043.53 73.9043 1043.3 72.8854 1043.3 71.668C1043.3 70.457 1043.51 69.4284 1043.92 68.582C1044.33 67.7357 1044.9 67.0911 1045.65 66.6484C1046.39 66.2057 1047.25 65.9844 1048.24 65.9844ZM1048.24 67.7129C1047.52 67.7129 1046.94 67.9473 1046.49 68.416C1046.04 68.8848 1045.78 69.5716 1045.71 70.4766H1050.63C1050.62 69.9362 1050.53 69.4577 1050.35 69.041C1050.18 68.6243 1049.92 68.2988 1049.57 68.0645C1049.23 67.8301 1048.78 67.7129 1048.24 67.7129ZM1059.48 75.3398C1059.78 75.3398 1060.08 75.3138 1060.37 75.2617C1060.67 75.2031 1060.93 75.1348 1061.17 75.0566V76.7949C1060.92 76.9056 1060.59 77 1060.19 77.0781C1059.78 77.1562 1059.36 77.1953 1058.93 77.1953C1058.32 77.1953 1057.77 77.0944 1057.28 76.8926C1056.79 76.6842 1056.4 76.3294 1056.12 75.8281C1055.83 75.3268 1055.69 74.6335 1055.69 73.748V67.9375H1054.21V66.9121L1055.79 66.1016L1056.54 63.7871H1057.99V66.1895H1061.09V67.9375H1057.99V73.7188C1057.99 74.2656 1058.13 74.6725 1058.4 74.9395C1058.67 75.2064 1059.04 75.3398 1059.48 75.3398ZM1067.68 65.9844C1068.64 65.9844 1069.47 66.1829 1070.16 66.5801C1070.85 66.9772 1071.38 67.5404 1071.75 68.2695C1072.12 68.9987 1072.31 69.8711 1072.31 70.8867V72.1172H1065.09C1065.12 73.1654 1065.4 73.9727 1065.93 74.5391C1066.47 75.1055 1067.23 75.3887 1068.2 75.3887C1068.89 75.3887 1069.5 75.3236 1070.05 75.1934C1070.6 75.0566 1071.17 74.8581 1071.76 74.5977V76.4629C1071.22 76.7168 1070.67 76.9023 1070.11 77.0195C1069.55 77.1367 1068.88 77.1953 1068.1 77.1953C1067.04 77.1953 1066.1 76.9902 1065.29 76.5801C1064.49 76.1634 1063.87 75.5449 1063.41 74.7246C1062.96 73.9043 1062.74 72.8854 1062.74 71.668C1062.74 70.457 1062.94 69.4284 1063.35 68.582C1063.76 67.7357 1064.34 67.0911 1065.08 66.6484C1065.82 66.2057 1066.69 65.9844 1067.68 65.9844ZM1067.68 67.7129C1066.96 67.7129 1066.37 67.9473 1065.92 68.416C1065.48 68.8848 1065.22 69.5716 1065.14 70.4766H1070.06C1070.05 69.9362 1069.96 69.4577 1069.79 69.041C1069.62 68.6243 1069.36 68.2988 1069.01 68.0645C1068.66 67.8301 1068.22 67.7129 1067.68 67.7129ZM1078.53 77.1953C1077.24 77.1953 1076.2 76.7266 1075.42 75.7891C1074.65 74.8451 1074.26 73.4551 1074.26 71.6191C1074.26 69.7637 1074.65 68.3607 1075.44 67.4102C1076.24 66.4596 1077.28 65.9844 1078.58 65.9844C1079.12 65.9844 1079.6 66.0592 1080.01 66.209C1080.42 66.3522 1080.77 66.5475 1081.07 66.7949C1081.37 67.0423 1081.62 67.319 1081.83 67.625H1081.94C1081.9 67.4232 1081.86 67.1335 1081.82 66.7559C1081.78 66.3717 1081.76 66.0169 1081.76 65.6914V61.8047H1084.06V77H1082.27L1081.86 75.5254H1081.76C1081.56 75.8379 1081.32 76.1211 1081.02 76.375C1080.72 76.6224 1080.37 76.821 1079.96 76.9707C1079.56 77.1204 1079.08 77.1953 1078.53 77.1953ZM1079.17 75.3301C1080.15 75.3301 1080.85 75.0469 1081.25 74.4805C1081.66 73.9141 1081.86 73.0645 1081.88 71.9316V71.6289C1081.88 70.418 1081.68 69.4902 1081.29 68.8457C1080.9 68.1947 1080.19 67.8691 1079.15 67.8691C1078.33 67.8691 1077.69 68.2044 1077.26 68.875C1076.83 69.5391 1076.61 70.4668 1076.61 71.6582C1076.61 72.8496 1076.83 73.7611 1077.26 74.3926C1077.69 75.0176 1078.33 75.3301 1079.17 75.3301Z" fill="#ACACAC"/>
<defs>
<clipPath id="clip0_249_3456">
<rect width="40" height="40" fill="white" transform="translate(43)"/>
</clipPath>
<clipPath id="clip1_249_3456">
<rect width="40" height="40" fill="white" transform="translate(528)"/>
</clipPath>
<clipPath id="clip2_249_3456">
<rect width="40" height="40" fill="white" transform="translate(1013)"/>
</clipPath>
</defs>
</svg>
