<svg width="32" height="32" viewBox="0 0 32 32" fill="none" xmlns="http://www.w3.org/2000/svg">
<rect width="32" height="32" rx="8" fill="white"/>
<path d="M9 14.9998H19L15.71 11.7098C15.6163 11.6169 15.5419 11.5063 15.4911 11.3844C15.4403 11.2625 15.4142 11.1318 15.4142 10.9998C15.4142 10.8678 15.4403 10.7371 15.4911 10.6152C15.5419 10.4934 15.6163 10.3828 15.71 10.2898C15.8974 10.1036 16.1508 9.99902 16.415 9.99902C16.6792 9.99902 16.9326 10.1036 17.12 10.2898L21.41 14.5898C21.7856 14.9632 21.9978 15.4702 22 15.9998C21.9951 16.5259 21.7832 17.0289 21.41 17.3998L17.12 21.6998C17.0268 21.7924 16.9162 21.8657 16.7946 21.9156C16.6731 21.9654 16.5429 21.9908 16.4115 21.9904C16.2801 21.9899 16.1501 21.9636 16.0288 21.9129C15.9076 21.8621 15.7976 21.7881 15.705 21.6948C15.6124 21.6016 15.5391 21.491 15.4893 21.3694C15.4394 21.2479 15.414 21.1177 15.4144 20.9863C15.4149 20.8549 15.4412 20.7249 15.492 20.6037C15.5427 20.4824 15.6168 20.3724 15.71 20.2798L19 16.9998H9C8.73478 16.9998 8.48043 16.8945 8.29289 16.7069C8.10535 16.5194 8 16.265 8 15.9998C8 15.7346 8.10535 15.4802 8.29289 15.2927C8.48043 15.1052 8.73478 14.9998 9 14.9998Z" fill="#D9176C"/>
</svg>
