<svg width="32" height="32" viewBox="0 0 32 32" fill="none" xmlns="http://www.w3.org/2000/svg">
<g clip-path="url(#clip0_72_3233)">
<path d="M25.7773 19.5558C24.7692 19.5567 23.7764 19.8028 22.8847 20.2729C21.9929 20.7431 21.2289 21.4232 20.6587 22.2545L11.98 18.3358C12.5964 16.8474 12.5988 15.1754 11.9867 13.6852L20.6533 9.74651C21.4985 10.9688 22.7538 11.8478 24.1915 12.2239C25.6291 12.6 27.154 12.4484 28.4895 11.7965C29.825 11.1446 30.8826 10.0357 31.4704 8.67086C32.0583 7.30602 32.1376 5.77567 31.6938 4.35741C31.25 2.93914 30.3126 1.7269 29.0516 0.940582C27.7906 0.15426 26.2896 -0.154062 24.8207 0.0715431C23.3519 0.297148 22.0125 1.04174 21.0456 2.17025C20.0787 3.29875 19.5484 4.73644 19.5507 6.22251C19.5563 6.57424 19.592 6.92485 19.6573 7.27051L10.444 11.4572C9.55911 10.6281 8.45134 10.0756 7.25676 9.86752C6.06218 9.65942 4.83283 9.8048 3.71974 10.2858C2.60664 10.7668 1.65829 11.5624 0.991186 12.575C0.324081 13.5876 -0.0327212 14.7729 -0.0353854 15.9855C-0.0380496 17.1981 0.31354 18.385 0.97619 19.4005C1.63884 20.416 2.58369 21.2158 3.69465 21.7017C4.80562 22.1875 6.03432 22.3383 7.2298 22.1355C8.42528 21.9326 9.53548 21.385 10.424 20.5598L19.6613 24.7305C19.5972 25.0759 19.5619 25.426 19.556 25.7772C19.5557 27.008 19.9205 28.2113 20.6041 29.2348C21.2878 30.2583 22.2596 31.0561 23.3967 31.5272C24.5338 31.9984 25.7851 32.1217 26.9923 31.8817C28.1995 31.6416 29.3084 31.0489 30.1787 30.1786C31.0491 29.3083 31.6418 28.1994 31.8818 26.9922C32.1219 25.785 31.9985 24.5337 31.5274 23.3966C31.0563 22.2595 30.2585 21.2876 29.235 20.604C28.2114 19.9203 27.0082 19.5556 25.7773 19.5558ZM25.7773 2.66651C26.4807 2.66624 27.1683 2.87458 27.7533 3.26515C28.3383 3.65573 28.7942 4.21101 29.0636 4.86076C29.3329 5.51051 29.4036 6.22555 29.2665 6.91543C29.1294 7.60532 28.7909 8.23906 28.2936 8.73651C27.7963 9.23396 27.1627 9.57277 26.4729 9.71008C25.7831 9.8474 25.068 9.77706 24.4181 9.50795C23.7683 9.23885 23.2128 8.78306 22.822 8.19826C22.4312 7.61345 22.2227 6.92588 22.2227 6.22251C22.2234 5.27985 22.5981 4.37598 23.2645 3.70929C23.9309 3.0426 24.8347 2.66757 25.7773 2.66651ZM6.22266 19.5558C5.51929 19.5561 4.83164 19.3478 4.24669 18.9572C3.66173 18.5666 3.20574 18.0113 2.93639 17.3616C2.66704 16.7118 2.59643 15.9968 2.73349 15.3069C2.87055 14.617 3.20912 13.9833 3.70638 13.4858C4.20364 12.9884 4.83726 12.6496 5.52709 12.5123C6.21693 12.375 6.93199 12.4453 7.58184 12.7144C8.23169 12.9835 8.78714 13.4393 9.17794 14.0241C9.56874 14.6089 9.77733 15.2965 9.77733 15.9998C9.77627 16.9424 9.40146 17.8461 8.7351 18.5127C8.06874 19.1793 7.16521 19.5544 6.22266 19.5558ZM25.7773 29.3332C25.074 29.3332 24.3865 29.1246 23.8017 28.7339C23.2169 28.3431 22.7612 27.7878 22.492 27.138C22.2229 26.4882 22.1524 25.7732 22.2897 25.0834C22.4269 24.3936 22.7655 23.76 23.2629 23.2627C23.7602 22.7654 24.3938 22.4267 25.0836 22.2895C25.7734 22.1523 26.4884 22.2227 27.1381 22.4919C27.7879 22.761 28.3433 23.2168 28.734 23.8016C29.1248 24.3863 29.3333 25.0739 29.3333 25.7772C29.3326 26.7201 28.9577 27.6241 28.291 28.2909C27.6243 28.9576 26.7202 29.3325 25.7773 29.3332Z" fill="#222222" fill-opacity="0.5"/>
</g>
<defs>
<clipPath id="clip0_72_3233">
<rect width="32" height="32" fill="white"/>
</clipPath>
</defs>
</svg>
