<svg width="24" height="24" viewBox="0 0 24 24" fill="none" xmlns="http://www.w3.org/2000/svg">
<path d="M12.0273 0H11.9727C5.36035 0 0 5.36035 0 11.9727V12.0273C0 18.6397 5.36035 24 11.9727 24H12.0273C18.6397 24 24 18.6397 24 12.0273V11.9727C24 5.36035 18.6397 0 12.0273 0Z" fill="#00E510"/>
<path d="M14.339 15.51C11.2674 15.51 8.76842 13.0102 8.76758 9.93862C8.76842 9.16 9.40241 8.52686 10.1793 8.52686C10.2592 8.52686 10.3383 8.53358 10.4139 8.54704C10.5804 8.57478 10.7385 8.63112 10.884 8.71604C10.905 8.72866 10.9193 8.74884 10.9226 8.77238L11.2472 10.8181C11.2514 10.8425 11.2438 10.8661 11.2279 10.8837C11.0488 11.0822 10.8201 11.2251 10.5653 11.2966L10.4425 11.331L10.4888 11.4496C10.9075 12.5158 11.7601 13.3676 12.8271 13.788L12.9457 13.8351L12.9802 13.7123C13.0516 13.4575 13.1946 13.2288 13.393 13.0497C13.4073 13.0363 13.4267 13.0295 13.446 13.0295C13.4502 13.0295 13.4544 13.0295 13.4595 13.0304L15.5052 13.3549C15.5296 13.3591 15.5498 13.3726 15.5624 13.3936C15.6465 13.5391 15.7028 13.698 15.7314 13.8645C15.7448 13.9385 15.7507 14.0167 15.7507 14.0982C15.7507 14.876 15.1176 15.5092 14.339 15.51Z" fill="#FDFDFD"/>
<path d="M19.7856 11.3259C19.62 9.4542 18.7624 7.71788 17.3708 6.43728C15.9708 5.14912 14.1546 4.43945 12.2551 4.43945C8.08624 4.43945 4.69431 7.83139 4.69431 12.0003C4.69431 13.3994 5.08025 14.7624 5.81094 15.9497L4.1814 19.5569L9.39879 19.0011C10.3061 19.3727 11.2663 19.5611 12.2543 19.5611C12.5141 19.5611 12.7806 19.5476 13.048 19.5199C13.2835 19.4946 13.5214 19.4576 13.7552 19.4105C17.2463 18.7051 19.7949 15.6066 19.8151 12.0406V12.0003C19.8151 11.7732 19.805 11.5462 19.7848 11.3259H19.7856ZM9.59975 17.4178L6.71316 17.7255L7.57502 15.816L7.40265 15.5847C7.39003 15.5679 7.37742 15.5511 7.36313 15.5318C6.61478 14.4984 6.21958 13.2775 6.21958 12.0011C6.21958 8.67306 8.92708 5.96557 12.2551 5.96557C15.3729 5.96557 18.0157 8.39811 18.2705 11.5033C18.2839 11.6698 18.2915 11.8371 18.2915 12.0019C18.2915 12.049 18.2906 12.0953 18.2898 12.1449C18.2259 14.9289 16.281 17.2933 13.5601 17.8954C13.3524 17.9416 13.1397 17.9769 12.9278 17.9996C12.7075 18.0249 12.4813 18.0375 12.2568 18.0375C11.4572 18.0375 10.6802 17.8827 9.94618 17.5767C9.86462 17.5439 9.78473 17.5086 9.7099 17.4724L9.60059 17.4194L9.59975 17.4178Z" fill="#FDFDFD"/>
</svg>
